# xmcd
#
# Track frame offsets:
#	150
#	5495
#	28132
#	29667
#	51003
#	73755
#	99005
#	118644
#	138750
#	156554
#	157609
#	181039
#	185060
#	206747
#	223937
#	243279
#	245145
#	267417
#	288420
#	310734
#
# Disc length: 4438 seconds
#
# Revision: 0
# Processed by: cddbd v1.4b42PL0 Copyright (c) Steve Scherf et al.
# Submitted via: EZCDDA 4.3.3.2
#
DISCID=22115414
DTITLE=Jon B. - Pleasures You Like
DYEAR=1900
DGENRE=
TTITLE0=Interlude
TTITLE1=Finer Things (feat.  NAS)
TTITLE2=Vibezelect Cafe - Interlude
TTITLE3=Don't Talk
TTITLE4=Sof'N Sweet
TTITLE5=Overjoyed (feat. Faith Evans)
TTITLE6=Boy Is Not A Man
TTITLE7=Lonely Girl
TTITLE8=Cocoa Brown
TTITLE9=What Up Boogotti - Interlude
TTITLE10=All I Want Is You (feat. Cuban link)
TTITLE11=Been Played - Interlude
TTITLE12=Layaway (feat. AZ)
TTITLE13=Pleasures U Like
TTITLE14=Now That I'm With You
TTITLE15=My Seed With You - Interlude
TTITLE16=Tell Me
TTITLE17=Calling On You
TTITLE18=Inside
TTITLE19=Do It All Again
EXTD=
EXTT0=
EXTT1=
EXTT2=
EXTT3=
EXTT4=
EXTT5=
EXTT6=
EXTT7=
EXTT8=
EXTT9=
EXTT10=
EXTT11=
EXTT12=
EXTT13=
EXTT14=
EXTT15=
EXTT16=
EXTT17=
EXTT18=
EXTT19=
PLAYORDER=
